<svg width="251" height="88" viewBox="0 0 251 88" fill="none" xmlns="http://www.w3.org/2000/svg">
<g clip-path="url(#clip0_2340_114)">
<path fill-rule="evenodd" clip-rule="evenodd" d="M26.4058 87.8688V13.4858H39.5515C43.8514 13.4858 46.2657 15.6047 46.2657 19.8457V67.7538C46.2657 72.1606 43.8548 74.3656 39.5515 74.3656H33.0628V87.8723H28.1231L26.4058 87.8688ZM39.6525 67.5916V20.2391H33.0628V67.5882H39.6525V67.5916Z" fill="white"/>
<path fill-rule="evenodd" clip-rule="evenodd" d="M19.7286 67.5916C19.7286 71.9984 17.5769 74.3311 13.277 74.3311H6.45161C2.4244 74.3311 0.272745 72.0846 0 67.8435V13.4858H6.45161L6.59303 67.5916H13.277V13.4858H19.7286V67.5916Z" fill="white"/>
<path fill-rule="evenodd" clip-rule="evenodd" d="M52.8487 74.3899L52.7982 88L251 87.9517L250.953 0H52.7982V13.4928L66.0011 13.5308V20.253L59.371 20.2599L59.3508 74.383L52.8487 74.3899ZM76.7729 28.466V13.3962H78.3791V28.9906C78.3791 30.7022 77.4296 31.558 75.5304 31.558C73.665 31.558 72.7323 30.7022 72.7323 28.9906V13.3962H74.3384V28.466C74.3384 29.5979 74.7459 30.1639 75.554 30.1639C76.3689 30.1639 76.7729 29.5979 76.7729 28.466ZM72.7323 34.7949V52.8083V52.8152H74.3384V44.7057H75.288C76.3116 44.7057 77.0086 44.5056 77.3824 44.1053C77.773 43.705 77.9683 42.9906 77.9683 41.9588V37.5417C77.9683 36.5099 77.773 35.7956 77.3824 35.3953C77.0086 34.995 76.3116 34.7949 75.288 34.7949H72.7323ZM75.1163 43.3047H74.3384V36.1959H75.1163C75.9446 36.1959 76.3588 36.5686 76.3588 37.3174V42.1831C76.3588 42.932 75.9446 43.3047 75.1163 43.3047ZM74.5337 57.5946V74.2105H76.1399V57.5946H77.9414V56.1971H72.7323V57.5946H74.5337ZM79.5476 60.6141V74.2105H81.0561V60.6141H79.5476ZM79.5004 56.1971V58.0916H81.1066V56.1971H79.5004ZM83.0528 74.2105V60.6141H84.4637V61.539H84.5142C84.9856 60.8246 85.5681 60.4658 86.2685 60.4658C86.8847 60.4658 87.3561 60.7487 87.6794 61.3147C88.134 60.7487 88.6525 60.4658 89.2384 60.4658C89.8209 60.4658 90.2688 60.6659 90.5786 61.0627C90.8884 61.4458 91.0399 61.9289 91.0399 62.5087V74.2105H89.5314V63.0332C89.5314 62.2498 89.2788 61.8599 88.7771 61.8599C88.1272 61.8599 87.804 62.274 87.804 63.1091V74.2105H86.2955V63.0332C86.2955 62.2498 86.0429 61.8599 85.5412 61.8599C84.8913 61.8599 84.5681 62.274 84.5681 63.1091V74.2105H83.0528ZM93.0333 60.6141V74.2105H94.5418V60.6141H93.0333ZM92.9861 56.1971V58.0916H94.5923V56.1971H92.9861ZM99.559 64.6551V62.6329C99.559 62.0186 99.2997 61.7115 98.7811 61.7115C98.2626 61.7115 98.0033 62.0359 98.0033 62.6846V64.2065C98.0033 64.5723 98.1885 65.0209 98.5623 65.5557L100.461 68.275C100.818 68.7926 100.997 69.2896 100.997 69.7727V72.0675C100.997 73.5962 100.243 74.3623 98.734 74.3623C97.239 74.3623 96.4948 73.6549 96.4948 72.24V69.8693H98.0033V71.964C98.0033 72.7301 98.2559 73.1131 98.7576 73.1131C99.2458 73.1131 99.4883 72.7232 99.4883 71.9398V70.2938C99.4883 69.8106 99.3031 69.3137 98.9293 68.7961L97.2019 66.3771C96.7305 65.711 96.4948 65.1071 96.4948 64.555V62.8089C96.4948 62.0773 96.7137 61.5045 97.1514 61.0869C97.5891 60.6693 98.1582 60.4623 98.8552 60.4623C99.5859 60.4623 100.138 60.6866 100.512 61.1352C100.822 61.4837 100.973 61.9082 100.973 62.4086V64.6551H99.559ZM97.5151 77.651L98.1245 74.7833H99.3906L98.4411 77.651H97.5151ZM106.277 63.0815V71.7397C106.277 72.6541 105.943 73.1131 105.28 73.1131C104.617 73.1131 104.283 72.6541 104.283 71.7397V63.0815C104.283 62.167 104.613 61.7115 105.28 61.7115C105.943 61.7115 106.277 62.167 106.277 63.0815ZM102.771 63.0815V71.7397C102.771 73.4858 103.606 74.3589 105.28 74.3589C106.953 74.3589 107.788 73.4858 107.788 71.7397V63.0815C107.788 61.3354 106.95 60.4623 105.28 60.4623C103.606 60.4623 102.771 61.3354 102.771 63.0815ZM113.045 71.7155V67.05C112.543 67.05 112.112 67.15 111.755 67.3502C111.284 67.6159 111.048 68.0059 111.048 68.5235V71.6154C111.048 72.6127 111.364 73.1131 111.998 73.1131C112.695 73.1131 113.045 72.6472 113.045 71.7155ZM113.045 65.8008V62.8572C113.045 62.0911 112.752 61.7081 112.169 61.7081C111.519 61.7081 111.196 62.1498 111.196 63.0297V64.3031H109.688V62.7054C109.688 62.0221 109.93 61.4837 110.418 61.0835C110.907 60.6659 111.506 60.4588 112.22 60.4588C113.779 60.4588 114.557 61.2491 114.557 62.8296V74.207H113.146V73.4858H113.099C112.644 74.069 112.062 74.3589 111.344 74.3589C110.142 74.3589 109.543 73.61 109.543 72.1124V68.42C109.539 66.6773 110.708 65.8008 113.045 65.8008ZM116.308 60.6141V74.2105V74.2139H117.816V64.0098C117.816 63.2954 117.961 62.7882 118.254 62.4879C118.543 62.1705 119.055 62.0117 119.786 62.0117V60.4658C118.91 60.4658 118.237 60.8315 117.766 61.5631H117.718V60.6141H116.308ZM124.78 71.7155V67.05C124.278 67.05 123.847 67.15 123.49 67.3502C123.018 67.6159 122.783 68.0059 122.783 68.5235V71.6154C122.783 72.6127 123.099 73.1131 123.732 73.1131C124.429 73.1131 124.78 72.6472 124.78 71.7155ZM124.78 65.8008V62.8572C124.78 62.0911 124.487 61.7081 123.904 61.7081C123.254 61.7081 122.931 62.1498 122.931 63.0297V64.3031H121.422V62.7054C121.422 62.0221 121.665 61.4837 122.153 61.0835C122.641 60.6659 123.241 60.4588 123.955 60.4588C125.514 60.4588 126.291 61.2491 126.291 62.8296V74.207H124.881V73.4858H124.833C124.379 74.069 123.796 74.3589 123.079 74.3589C121.877 74.3589 121.278 73.61 121.278 72.1124V68.42C121.274 66.6773 122.443 65.8008 124.78 65.8008ZM82.642 50.3409V41.6828C82.642 40.7683 82.3087 40.3093 81.6453 40.3093C80.9786 40.3093 80.6486 40.7683 80.6486 41.6828V50.3409C80.6486 51.2554 80.982 51.7144 81.6453 51.7144C82.3087 51.7109 82.642 51.2554 82.642 50.3409ZM79.1367 50.3409V41.6828C79.1367 39.9366 79.9718 39.0636 81.6453 39.0636C83.3155 39.0636 84.1539 39.9366 84.1539 41.6828V50.3409C84.1539 52.0871 83.3188 52.9601 81.6453 52.9601C79.9718 52.9601 79.1367 52.0871 79.1367 50.3409ZM86.0732 34.7983H87.5817V52.8117H86.0732V34.7983ZM89.6762 52.8083V39.212H91.1847V52.8083H89.6762ZM89.6257 36.6928V34.7983H91.2318V36.6928H89.6257ZM93.3498 37.3899V39.212H92.5989V40.4612H93.3498V51.1381C93.3498 52.2527 93.966 52.8083 95.1984 52.8083H95.9291V51.5625H95.6126C95.1109 51.5625 94.8583 51.3037 94.8583 50.7895V40.4612H95.9291V39.212H94.8583V36.7929L93.3498 37.3899ZM100.68 45.0025V41.6828C100.68 40.7683 100.347 40.3093 99.6836 40.3093C99.0169 40.3093 98.6869 40.7683 98.6869 41.6828V45.0025H100.68ZM100.68 50.3409V48.4188H102.189V50.3409C102.189 52.0871 101.354 52.9601 99.6802 52.9601C98.0101 52.9601 97.1716 52.0871 97.1716 50.3409V41.6828C97.1716 39.9366 98.0067 39.0636 99.6802 39.0636C101.35 39.0636 102.189 39.9366 102.189 41.6828V46.3966H98.6835V50.3375C98.6835 51.252 99.0169 51.7109 99.6802 51.7109C100.347 51.7109 100.68 51.2554 100.68 50.3409ZM103.94 34.7949V52.8083H105.448V41.7069C105.448 41.3894 105.536 41.1065 105.714 40.858C105.91 40.5923 106.169 40.4577 106.492 40.4577C107.125 40.4577 107.442 40.8753 107.442 41.7069V52.8083H108.95V41.1065C108.95 40.5267 108.799 40.0436 108.489 39.6606C108.196 39.2603 107.768 39.0601 107.199 39.0601C106.421 39.0601 105.852 39.419 105.495 40.1333H105.448V34.7949H103.94ZM110.708 52.8083V39.212H112.119V40.1333H112.166C112.587 39.419 113.173 39.0601 113.92 39.0601C114.503 39.0601 114.951 39.2603 115.26 39.6606C115.57 40.0436 115.722 40.5267 115.722 41.1065V52.8083H114.213V41.7069C114.213 40.8753 113.897 40.4577 113.264 40.4577C112.94 40.4577 112.678 40.5923 112.486 40.858C112.307 41.1065 112.216 41.3894 112.216 41.7069V52.8083H110.708ZM117.648 39.212V52.8083H119.156V39.212H117.648ZM117.597 34.7983V36.6928H119.203V34.7983H117.597ZM124.123 43.529V41.4343C124.123 40.6855 123.887 40.3128 123.416 40.3128C122.864 40.3128 122.587 40.6855 122.587 41.4343V50.6895C122.587 51.3727 122.84 51.7109 123.342 51.7109C123.86 51.7109 124.12 51.3693 124.12 50.6895V48.4947H125.628V50.6653C125.628 52.1975 124.874 52.9601 123.365 52.9601C122.715 52.9601 122.173 52.7841 121.736 52.4356C121.298 52.0871 121.079 51.5798 121.079 50.9138V41.6828C121.079 39.9366 121.914 39.0636 123.588 39.0636C124.951 39.0636 125.631 39.7952 125.631 41.2583V43.529H124.123ZM130.888 45.6478V50.3133C130.888 51.2485 130.541 51.7109 129.84 51.7109C129.207 51.7109 128.891 51.2105 128.891 50.2133V47.1213C128.891 46.6071 129.127 46.2137 129.598 45.948C129.955 45.7479 130.386 45.6478 130.888 45.6478ZM130.888 41.4585V44.402C128.551 44.402 127.382 45.2751 127.382 47.0212V50.7136C127.382 52.2113 127.982 52.9601 129.184 52.9601C129.901 52.9601 130.484 52.6703 130.938 52.0871H130.985V52.8083H132.4V41.4309C132.4 39.8504 131.622 39.0601 130.063 39.0601C129.349 39.0601 128.75 39.2672 128.261 39.6847C127.773 40.085 127.531 40.6234 127.531 41.3066V42.9044H129.039V41.631C129.039 40.751 129.362 40.3093 130.012 40.3093C130.595 40.3093 130.888 40.6924 130.888 41.4585ZM80.4971 17.8133V31.4096V31.4131H82.0056V20.3117C82.0056 19.9942 82.0965 19.7113 82.275 19.4628C82.4669 19.1971 82.7296 19.0625 83.0528 19.0625C83.6859 19.0625 84.0024 19.4766 84.0024 20.3083V31.4131H85.5109V19.7113C85.5109 19.1315 85.3594 18.6484 85.0496 18.2654C84.7398 17.8651 84.292 17.6649 83.7094 17.6649C82.9619 17.6649 82.376 18.0238 81.9551 18.7381H81.908V17.8133H80.4971ZM87.437 31.4096V17.8133H88.9455V31.4096H87.437ZM87.3864 15.2942V13.3997H88.9926V15.2942H87.3864ZM90.4304 17.8133L92.013 31.4096H94.2522L95.8348 17.8133H94.424L93.1579 29.315H93.1074L91.8413 17.8133H90.4304ZM100.653 23.6004V20.2806C100.653 19.3662 100.32 18.9072 99.6566 18.9072C98.9933 18.9072 98.6599 19.3696 98.6599 20.2841V23.6038H100.653V23.6004ZM100.653 28.9388V27.0201H102.162V28.9423C102.162 30.6884 101.327 31.5615 99.6533 31.5615C97.9831 31.5615 97.1447 30.6884 97.1447 28.9423V20.2841C97.1447 18.538 97.9797 17.6649 99.6533 17.6649C101.323 17.6649 102.162 18.538 102.162 20.2841V25.0014H98.6599V28.9423C98.6599 29.8567 98.9933 30.3157 99.6566 30.3157C100.32 30.3157 100.653 29.8533 100.653 28.9388ZM103.916 17.8133V31.4096H105.428V21.2055C105.428 20.4911 105.573 19.9839 105.866 19.6836C106.155 19.3696 106.667 19.2109 107.398 19.2109V17.6649C106.522 17.6649 105.849 18.0307 105.378 18.7623H105.327V17.8133H103.916ZM111.974 21.8542V19.8355C111.974 19.2212 111.715 18.9107 111.196 18.9107C110.678 18.9107 110.418 19.235 110.418 19.8838V21.4056C110.418 21.7714 110.603 22.22 110.977 22.7514L112.876 25.4707C113.233 25.9849 113.412 26.4853 113.412 26.9684V29.2632C113.412 30.7919 112.657 31.558 111.149 31.558C109.657 31.558 108.91 30.8506 108.91 29.4392V27.0685H110.418V29.1631C110.418 29.9292 110.671 30.3123 111.173 30.3123C111.661 30.3123 111.903 29.9223 111.903 29.139V27.4929C111.903 27.0098 111.718 26.5129 111.344 25.9952L109.617 23.5762C109.145 22.9102 108.91 22.3028 108.91 21.7542V20.008C108.91 19.2764 109.129 18.7036 109.566 18.2861C110.004 17.8685 110.573 17.6615 111.27 17.6615C112.001 17.6615 112.553 17.8858 112.927 18.3344C113.237 18.6829 113.388 19.1074 113.388 19.6077V21.8542H111.974ZM115.358 17.8133V31.4096H116.867V17.8133H115.358ZM115.308 13.3997V15.2942H116.914V13.3997H115.308ZM119.035 17.8098V15.9912L120.544 15.3908V17.8098H121.614V19.059H120.544V29.3874C120.544 29.9016 120.796 30.1604 121.298 30.1604H121.614V31.4062H120.884C119.651 31.4062 119.035 30.8506 119.035 29.736V19.059H118.281V17.8098H119.035ZM126.362 24.2491V28.9147C126.362 29.8464 126.012 30.3123 125.315 30.3123C124.682 30.3123 124.365 29.8119 124.365 28.8146V25.7226C124.365 25.205 124.601 24.8151 125.072 24.5493C125.429 24.3492 125.86 24.2491 126.362 24.2491ZM126.362 20.0598V23.0034C124.025 23.0034 122.857 23.8764 122.86 25.6191V29.3115C122.86 30.8092 123.46 31.558 124.662 31.558C125.376 31.558 125.961 31.2681 126.416 30.6849H126.463V31.4096H127.874V20.0322C127.874 18.4517 127.096 17.6615 125.537 17.6615C124.823 17.6615 124.224 17.8685 123.736 18.2861C123.247 18.6864 123.005 19.2247 123.005 19.908V21.5057H124.514V20.2323C124.514 19.3524 124.837 18.9107 125.487 18.9107C126.069 18.9107 126.362 19.2937 126.362 20.0598ZM129.867 17.8098V15.9912L131.376 15.3908V17.8098H132.447V19.059H131.376V29.3874C131.376 29.9016 131.628 30.1604 132.13 30.1604H132.447V31.4062H131.716C130.484 31.4062 129.864 30.8506 129.864 29.736V19.059H129.11V17.8098H129.867ZM137.194 20.2806V23.6004H135.198V20.2806C135.198 19.3662 135.528 18.9072 136.194 18.9072C136.861 18.9072 137.194 19.3662 137.194 20.2806ZM137.194 27.0201V28.9388C137.194 29.8533 136.861 30.3123 136.194 30.3157C135.531 30.3157 135.198 29.8567 135.198 28.9423V25.0014H138.703V20.2841C138.703 18.538 137.865 17.6649 136.194 17.6649C134.521 17.6649 133.686 18.538 133.686 20.2841V28.9423C133.686 30.6884 134.524 31.5615 136.194 31.5615C137.868 31.5615 138.703 30.6884 138.703 28.9423V27.0201H137.194ZM143.963 28.9147V24.2491C143.458 24.2491 143.03 24.3492 142.673 24.5493C142.202 24.8151 141.966 25.205 141.966 25.7226V28.8146C141.966 29.8119 142.282 30.3123 142.915 30.3123C143.612 30.3123 143.963 29.8464 143.963 28.9147ZM143.963 23.0034V20.0598C143.963 19.2937 143.67 18.9107 143.087 18.9107C142.437 18.9107 142.114 19.3524 142.114 20.2323V21.5057H140.606V19.908C140.606 19.2247 140.848 18.6864 141.336 18.2861C141.824 17.8685 142.424 17.6615 143.138 17.6615C144.697 17.6615 145.475 18.4517 145.475 20.0322V31.4096H144.064V30.6849H144.017C143.562 31.2681 142.979 31.558 142.262 31.558C141.06 31.558 140.461 30.8092 140.461 29.3115V25.6191C140.457 23.8764 141.626 23.0034 143.963 23.0034Z" fill="white"/>
</g>
<defs>
<clipPath id="clip0_2340_114">
<rect width="251" height="88" fill="white"/>
</clipPath>
</defs>
</svg>
